<svg xmlns="http://www.w3.org/2000/svg" xmlns:xlink="http://www.w3.org/1999/xlink" version="1.1" id="Layer_1" x="0px" y="0px" width="100px" height="100px" viewBox="0 0 100 100" enable-background="new 0 0 100 100" xml:space="preserve">
<path d="M79.36,37.492H20.64c-4.382,0-7.935,3.552-7.935,7.935c0,4.382,3.553,7.935,7.935,7.935h27.303v2.985  c-5.211,0.969-9.161,5.529-9.161,11.022c0,6.196,22.438,6.196,22.438,0c0-5.492-3.948-10.054-9.16-11.022v-2.985H79.36  c4.383,0,7.935-3.553,7.935-7.935C87.295,41.044,83.743,37.492,79.36,37.492z M42.305,47.414c-1.052,0-1.904-0.852-1.904-1.903  c0-1.052,0.852-1.904,1.904-1.904s1.904,0.852,1.904,1.904C44.208,46.562,43.356,47.414,42.305,47.414z M50.145,48.583  c-1.697,0-3.073-1.375-3.073-3.072c0-1.698,1.376-3.073,3.073-3.073c1.698,0,3.073,1.375,3.073,3.073  C53.218,47.207,51.843,48.583,50.145,48.583z M57.985,47.414c-1.052,0-1.903-0.852-1.903-1.903c0-1.052,0.852-1.904,1.903-1.904  s1.904,0.852,1.904,1.904C59.89,46.562,59.037,47.414,57.985,47.414z"/>
</svg>