<?xml version="1.0" encoding="utf-8"?>
<!-- Generator: Adobe Illustrator 16.0.0, SVG Export Plug-In . SVG Version: 6.00 Build 0)  -->
<!DOCTYPE svg PUBLIC "-//W3C//DTD SVG 1.1//EN" "http://www.w3.org/Graphics/SVG/1.1/DTD/svg11.dtd">
<svg version="1.1" id="Layer_1" xmlns="http://www.w3.org/2000/svg" xmlns:xlink="http://www.w3.org/1999/xlink" x="0px" y="0px"
	 width="99.999px" height="75px" viewBox="0 0 99.999 75" enable-background="new 0 0 99.999 75" xml:space="preserve">
<circle fill="#010101" cx="50" cy="41.668" r="16.667"/>
<path fill="#010101" d="M91.667,8.334H62.5V4.167C62.5,1.864,60.632,0,58.333,0H41.667C39.368,0,37.5,1.868,37.5,4.167v4.167H8.333
	C3.733,8.334,0,12.067,0,16.667v50C0,71.265,3.733,75,8.333,75h83.333c4.598,0,8.333-3.735,8.333-8.333v-50
	C100,12.067,96.266,8.334,91.667,8.334z M50,66.668c-13.804,0-25-11.198-25-25c0-13.805,11.196-25,25-25c13.802,0,25,11.196,25,25
	C75,55.47,63.802,66.668,50,66.668z"/>
</svg>
